# xmcd
#
# Track frame offsets: 
#        150
#        11810
#        26540
#        41582
#        55567
#        67420
#        80746
#        92870
#        105570
#        118432
#        133517
#        147799
#        162542
#        176175
#
# Disc length: 2543 seconds
#
# Revision: 0
# Processed by: cddbd v1.4PL0 Copyright (c) Steve Scherf et al.
# Submitted via: ExactAudioCopy v0.90b4
#
DISCID=cd09ed0e
DTITLE=Perry Como - Perry Como [2]
DYEAR=1999
DGENRE=
TTITLE0=They Say It's Wonderful
TTITLE1=Surrender
TTITLE2=Sonata
TTITLE3=Dig You Later (Hubba, Hubba, Hubba)
TTITLE4=Deep In The Heart Of Texas
TTITLE5=Did You Ever Get That Feeling In The Moonlight
TTITLE6=I'm Gonna Lose That Girl
TTITLE7=I'm Confessin' That I Love You
TTITLE8=Have I Stayed Away Too Long
TTITLE9=Prisoner Of Love
TTITLE10=Long Ago And Far Away
TTITLE11=When You Were Sweet Sixteen
TTITLE12=Chi-Baba Chi-Baba
TTITLE13=So Far
EXTD=
EXTT0=
EXTT1=
EXTT2=
EXTT3=
EXTT4=
EXTT5=
EXTT6=
EXTT7=
EXTT8=
EXTT9=
EXTT10=
EXTT11=
EXTT12=
EXTT13=
PLAYORDER=
